<svg width="79" height="79" viewBox="0 0 79 79" fill="none" xmlns="http://www.w3.org/2000/svg">
<path d="M16.0469 49.375H11.1094C10.4276 49.375 9.875 49.9276 9.875 50.6094V72.8281C9.875 73.5099 10.4276 74.0625 11.1094 74.0625H16.0469C16.7286 74.0625 17.2812 73.5099 17.2812 72.8281V50.6094C17.2812 49.9276 16.7286 49.375 16.0469 49.375Z" stroke="#4B5043" stroke-width="2" stroke-linecap="round" stroke-linejoin="round"/>
<path d="M50.6094 34.5625H45.6719C44.9901 34.5625 44.4375 35.1151 44.4375 35.7969V72.8281C44.4375 73.5099 44.9901 74.0625 45.6719 74.0625H50.6094C51.2911 74.0625 51.8438 73.5099 51.8438 72.8281V35.7969C51.8438 35.1151 51.2911 34.5625 50.6094 34.5625Z" stroke="#4B5043" stroke-width="2" stroke-linecap="round" stroke-linejoin="round"/>
<path d="M67.8906 17.2812H62.9531C62.2714 17.2812 61.7188 17.8339 61.7188 18.5156V72.8281C61.7188 73.5099 62.2714 74.0625 62.9531 74.0625H67.8906C68.5724 74.0625 69.125 73.5099 69.125 72.8281V18.5156C69.125 17.8339 68.5724 17.2812 67.8906 17.2812Z" stroke="#4B5043" stroke-width="2" stroke-linecap="round" stroke-linejoin="round"/>
<path d="M33.3281 4.9375H28.3906C27.7089 4.9375 27.1562 5.49015 27.1562 6.17188V72.8281C27.1562 73.5098 27.7089 74.0625 28.3906 74.0625H33.3281C34.0099 74.0625 34.5625 73.5098 34.5625 72.8281V6.17188C34.5625 5.49015 34.0099 4.9375 33.3281 4.9375Z" stroke="#4B5043" stroke-width="2" stroke-linecap="round" stroke-linejoin="round"/>
</svg>
