<svg width="66" height="66" viewBox="0 0 66 66" fill="none" xmlns="http://www.w3.org/2000/svg">
<path d="M17.0019 5.00201C17.0019 3.94115 16.5804 2.92373 15.8302 2.17359C15.0799 1.42344 14.0624 1.00201 13.0014 1.00201H5.00047C3.93948 1.00201 2.92194 1.42344 2.17171 2.17359C1.42148 2.92373 1 3.94115 1 5.00201V61.002C1 62.0629 1.42148 63.0803 2.17171 63.8304C2.92194 64.5806 3.93948 65.002 5.00047 65.002H13.0014C14.0624 65.002 15.0799 64.5806 15.8302 63.8304C16.5804 63.0803 17.0019 62.0629 17.0019 61.002M17.0019 5.00201V61.002M17.0019 5.00201C17.0019 3.94115 17.4234 2.92373 18.1736 2.17359C18.9238 1.42344 19.9414 1.00201 21.0023 1.00201H29.0033C30.0643 1.00201 31.0818 1.42344 31.832 2.17359C32.5823 2.92373 33.0038 3.94115 33.0038 5.00201V61.002C33.0038 62.0629 32.5823 63.0803 31.832 63.8304C31.0818 64.5806 30.0643 65.002 29.0033 65.002H21.0023C19.9414 65.002 18.9238 64.5806 18.1736 63.8304C17.4234 63.0803 17.0019 62.0629 17.0019 61.002M1 17.002H17.0019M17.0019 49.002H33.0038" stroke="#4B5043" stroke-width="2" stroke-linecap="round" stroke-linejoin="round"/>
<path d="M37.0043 21.0018L53.0062 17.0018M45.0052 49.0018L60.6991 45.0818M36.2162 3.24176L44.9532 1.12176C47.2015 0.581757 49.4857 1.88176 50.0818 4.04976L64.8636 57.7218C65.1243 58.7044 65.0088 59.7489 64.5397 60.6508C64.0706 61.5527 63.2816 62.247 62.3273 62.5978L61.7952 62.7618L53.0582 64.8818C50.8099 65.4218 48.5256 64.1218 47.9296 61.9538L33.1478 8.28176C32.8871 7.29916 33.0025 6.2546 33.4717 5.35269C33.9408 4.45077 34.7298 3.75646 35.6841 3.40576L36.2162 3.24176Z" stroke="#4B5043" stroke-width="2" stroke-linecap="round" stroke-linejoin="round"/>
</svg>
