<svg width="76" height="76" viewBox="0 0 76 76" fill="none" xmlns="http://www.w3.org/2000/svg">
<path d="M38 9.5C35.7954 9.5 33.6811 10.3758 32.1222 11.9347C30.5633 13.4936 29.6875 15.6079 29.6875 17.8125C29.6875 20.0171 30.5633 22.1314 32.1222 23.6903C33.6811 25.2492 35.7954 26.125 38 26.125C40.2046 26.125 42.3189 25.2492 43.8778 23.6903C45.4367 22.1314 46.3125 20.0171 46.3125 17.8125C46.3125 15.6079 45.4367 13.4936 43.8778 11.9347C42.3189 10.3758 40.2046 9.5 38 9.5ZM27.3125 17.8125C27.3125 14.978 28.4385 12.2596 30.4428 10.2553C32.4471 8.251 35.1655 7.125 38 7.125C40.8345 7.125 43.5529 8.251 45.5572 10.2553C47.5615 12.2596 48.6875 14.978 48.6875 17.8125C48.6875 20.647 47.5615 23.3654 45.5572 25.3697C43.5529 27.374 40.8345 28.5 38 28.5C35.1655 28.5 32.4471 27.374 30.4428 25.3697C28.4385 23.3654 27.3125 20.647 27.3125 17.8125ZM14.25 16.625C12.3603 16.625 10.5481 17.3757 9.21186 18.7119C7.87567 20.0481 7.125 21.8603 7.125 23.75C7.125 25.6397 7.87567 27.4519 9.21186 28.7881C10.5481 30.1243 12.3603 30.875 14.25 30.875C16.1397 30.875 17.9519 30.1243 19.2881 28.7881C20.6243 27.4519 21.375 25.6397 21.375 23.75C21.375 21.8603 20.6243 20.0481 19.2881 18.7119C17.9519 17.3757 16.1397 16.625 14.25 16.625ZM4.75 23.75C4.75 21.2304 5.75089 18.8141 7.53249 17.0325C9.31408 15.2509 11.7304 14.25 14.25 14.25C16.7696 14.25 19.1859 15.2509 20.9675 17.0325C22.7491 18.8141 23.75 21.2304 23.75 23.75C23.75 26.2696 22.7491 28.6859 20.9675 30.4675C19.1859 32.2491 16.7696 33.25 14.25 33.25C11.7304 33.25 9.31408 32.2491 7.53249 30.4675C5.75089 28.6859 4.75 26.2696 4.75 23.75ZM54.625 23.75C54.625 21.8603 55.3757 20.0481 56.7119 18.7119C58.0481 17.3757 59.8603 16.625 61.75 16.625C63.6397 16.625 65.4519 17.3757 66.7881 18.7119C68.1243 20.0481 68.875 21.8603 68.875 23.75C68.875 25.6397 68.1243 27.4519 66.7881 28.7881C65.4519 30.1243 63.6397 30.875 61.75 30.875C59.8603 30.875 58.0481 30.1243 56.7119 28.7881C55.3757 27.4519 54.625 25.6397 54.625 23.75ZM61.75 14.25C59.2304 14.25 56.8141 15.2509 55.0325 17.0325C53.2509 18.8141 52.25 21.2304 52.25 23.75C52.25 26.2696 53.2509 28.6859 55.0325 30.4675C56.8141 32.2491 59.2304 33.25 61.75 33.25C64.2696 33.25 66.6859 32.2491 68.4675 30.4675C70.2491 28.6859 71.25 26.2696 71.25 23.75C71.25 21.2304 70.2491 18.8141 68.4675 17.0325C66.6859 15.2509 64.2696 14.25 61.75 14.25ZM23.75 39.1875C23.75 37.6128 24.3756 36.1026 25.4891 34.9891C26.6026 33.8756 28.1128 33.25 29.6875 33.25H46.3125C47.8872 33.25 49.3974 33.8756 50.5109 34.9891C51.6244 36.1026 52.25 37.6128 52.25 39.1875V52.25C52.25 56.0293 50.7487 59.6539 48.0763 62.3263C45.4039 64.9987 41.7793 66.5 38 66.5C34.2207 66.5 30.5961 64.9987 27.9237 62.3263C25.2513 59.6539 23.75 56.0293 23.75 52.25V39.1875ZM29.6875 35.625C28.7427 35.625 27.8365 36.0003 27.1684 36.6684C26.5003 37.3365 26.125 38.2427 26.125 39.1875V52.25C26.125 55.3994 27.3761 58.4199 29.6031 60.6469C31.8301 62.8739 34.8506 64.125 38 64.125C41.1494 64.125 44.1699 62.8739 46.3969 60.6469C48.6239 58.4199 49.875 55.3994 49.875 52.25V39.1875C49.875 38.2427 49.4997 37.3365 48.8316 36.6684C48.1635 36.0003 47.2573 35.625 46.3125 35.625H29.6875ZM21.5888 37.3041C21.4459 37.9217 21.3742 38.5536 21.375 39.1875V39.8216L9.766 42.9329C8.85424 43.1778 8.07698 43.7746 7.60494 44.5922C7.13291 45.4098 7.00471 46.3813 7.2485 47.2934L9.40025 55.3232C9.83915 56.9622 10.6242 58.4881 11.7025 59.7982C12.7808 61.1082 14.1273 62.172 15.6513 62.9178C17.1754 63.6636 18.8415 64.0741 20.5376 64.1218C22.2337 64.1694 23.9202 63.8531 25.4837 63.194C26.0427 63.8321 26.6467 64.425 27.2959 64.9729C25.4047 65.9286 23.3241 66.4506 21.2057 66.5007C19.0873 66.5508 16.9844 66.1278 15.0501 65.2626C13.1158 64.3974 11.3988 63.1117 10.0241 61.4991C8.64947 59.8865 7.65175 57.9876 7.10362 55.9408L4.95425 47.9085C4.7524 47.1553 4.7009 46.3697 4.80269 45.5966C4.90448 44.8235 5.15756 44.078 5.54748 43.4027C5.9374 42.7273 6.45652 42.1355 7.0752 41.6608C7.69389 41.1861 8.40001 40.838 9.15325 40.6363L21.5888 37.3041ZM48.7041 64.9729C49.5639 65.4051 50.4775 65.7527 51.4449 66.0155C55.0954 66.9933 58.9848 66.4809 62.2576 64.5911C65.5303 62.7013 67.9184 59.5888 68.8964 55.9384L71.0481 47.9109C71.4559 46.39 71.2428 44.7695 70.4558 43.4057C69.6688 42.0419 68.3723 41.0466 66.8515 40.6386L54.4113 37.3041C54.5537 37.9105 54.625 38.5383 54.625 39.1875V39.8216L66.2364 42.9329C67.1481 43.1778 67.9254 43.7746 68.3974 44.5922C68.8695 45.4098 68.9977 46.3813 68.7539 47.2934L66.6045 55.3232C66.1657 56.9628 65.3805 58.4893 64.3019 59.7998C63.2233 61.1103 61.8763 62.1743 60.3517 62.9202C58.8271 63.6661 57.1603 64.0764 55.4637 64.1237C53.767 64.1709 52.08 63.8539 50.5163 63.194C49.9573 63.8305 49.3533 64.425 48.7041 64.9729Z" fill="#4B5043"/>
</svg>
