<svg width="81" height="81" viewBox="0 0 81 81" fill="none" xmlns="http://www.w3.org/2000/svg">
<path d="M25.2 17C23.0517 17 20.9915 17.8534 19.4724 19.3724C17.9534 20.8915 17.1 22.9517 17.1 25.1V29.3525C14.813 29.8193 12.7576 31.062 11.2816 32.8701C9.80551 34.6783 8.99952 36.9409 9 39.275V49.4C9 51.5483 9.85339 53.6085 11.3724 55.1276C12.8915 56.6466 14.9517 57.5 17.1 57.5V63.575C17.1 64.1121 17.3133 64.6271 17.6931 65.0069C18.0729 65.3867 18.5879 65.6 19.125 65.6C19.6621 65.6 20.1771 65.3867 20.5569 65.0069C20.9367 64.6271 21.15 64.1121 21.15 63.575V57.5H61.65V63.575C61.65 64.1121 61.8633 64.6271 62.2431 65.0069C62.6229 65.3867 63.1379 65.6 63.675 65.6C64.2121 65.6 64.7271 65.3867 65.1069 65.0069C65.4867 64.6271 65.7 64.1121 65.7 63.575V57.5C67.8483 57.5 69.9085 56.6466 71.4276 55.1276C72.9466 53.6085 73.8 51.5483 73.8 49.4V39.275C73.8005 36.9409 72.9945 34.6783 71.5184 32.8701C70.0424 31.062 67.987 29.8193 65.7 29.3525V25.1C65.7 22.9517 64.8466 20.8915 63.3276 19.3724C61.8085 17.8534 59.7483 17 57.6 17H25.2ZM61.65 29.3525C57.681 30.1585 54.5585 33.281 53.7525 37.25H29.0475C28.6507 35.3042 27.6904 33.518 26.2862 32.1138C24.882 30.7096 23.0958 29.7493 21.15 29.3525V25.1C21.15 24.0259 21.5767 22.9957 22.3362 22.2362C23.0957 21.4767 24.1259 21.05 25.2 21.05H57.6C58.6741 21.05 59.7043 21.4767 60.4638 22.2362C61.2233 22.9957 61.65 24.0259 61.65 25.1V29.3525ZM65.7 53.45H17.1C16.0259 53.45 14.9957 53.0233 14.2362 52.2638C13.4767 51.5043 13.05 50.4741 13.05 49.4V39.275C13.05 37.6638 13.69 36.1186 14.8293 34.9793C15.9686 33.84 17.5138 33.2 19.125 33.2C20.7362 33.2 22.2814 33.84 23.4207 34.9793C24.56 36.1186 25.2 37.6638 25.2 39.275C25.2 39.8121 25.4133 40.3271 25.7931 40.7069C26.1729 41.0867 26.6879 41.3 27.225 41.3H55.575C56.1121 41.3 56.6271 41.0867 57.0069 40.7069C57.3867 40.3271 57.6 39.8121 57.6 39.275C57.6 37.6638 58.24 36.1186 59.3793 34.9793C60.5186 33.84 62.0638 33.2 63.675 33.2C65.2862 33.2 66.8314 33.84 67.9707 34.9793C69.11 36.1186 69.75 37.6638 69.75 39.275V49.4C69.75 50.4741 69.3233 51.5043 68.5638 52.2638C67.8043 53.0233 66.7741 53.45 65.7 53.45Z" fill="#4B5043"/>
</svg>
